<svg id="visual" viewBox="0 0 900 600" width="900" height="600" xmlns="http://www.w3.org/2000/svg" xmlns:xlink="http://www.w3.org/1999/xlink" version="1.1"><rect x="0" y="0" width="900" height="600" fill="#001220"></rect><defs><linearGradient id="grad1_0" x1="33.3%" y1="0%" x2="100%" y2="100%"><stop offset="20%" stop-color="#001220" stop-opacity="1"></stop><stop offset="80%" stop-color="#001220" stop-opacity="1"></stop></linearGradient></defs><defs><linearGradient id="grad2_0" x1="0%" y1="0%" x2="66.7%" y2="100%"><stop offset="20%" stop-color="#001220" stop-opacity="1"></stop><stop offset="80%" stop-color="#001220" stop-opacity="1"></stop></linearGradient></defs><g transform="translate(900, 0)"><path d="M0 378.6C-36.1 342 -72.1 305.5 -121.3 292.9C-170.5 280.3 -232.7 291.6 -267.7 267.7C-302.7 243.8 -310.3 184.8 -324.3 134.3C-338.2 83.8 -358.4 41.9 -378.6 0L0 0Z" fill="#0066FF"></path></g><g transform="translate(0, 600)"><path d="M0 -378.6C44.1 -363.8 88.2 -349 138.5 -334.4C188.8 -319.8 245.4 -305.4 267.7 -267.7C290 -230 278.2 -169 291 -120.5C303.8 -72.1 341.2 -36 378.6 0L0 0Z" fill="#0066FF"></path></g></svg>