<svg id="visual" viewBox="0 0 900 600" width="900" height="600" xmlns="http://www.w3.org/2000/svg" xmlns:xlink="http://www.w3.org/1999/xlink" version="1.1"><g stroke-width="1" stroke-linejoin="bevel"><path d="M412 316L347.5 382L416 381Z" fill="#31434c" stroke="#31434c"></path><path d="M412 316L323.5 275L347.5 382Z" fill="#25323a" stroke="#25323a"></path><path d="M323.5 275L253 315L347.5 382Z" fill="#31434c" stroke="#31434c"></path><path d="M412 316L367.5 214L323.5 275Z" fill="#040c12" stroke="#040c12"></path><path d="M323.5 275L197 185L253 315Z" fill="#212c34" stroke="#212c34"></path><path d="M538.5 379L455 230L412 316Z" fill="#151d23" stroke="#151d23"></path><path d="M412 316L455 230L367.5 214Z" fill="#25323a" stroke="#25323a"></path><path d="M249 419L372.5 494L347.5 382Z" fill="#212c34" stroke="#212c34"></path><path d="M347.5 382L372.5 494L416 381Z" fill="#25323a" stroke="#25323a"></path><path d="M253 315L249 419L347.5 382Z" fill="#0c1318" stroke="#0c1318"></path><path d="M414 537L538.5 379L416 381Z" fill="#25323a" stroke="#25323a"></path><path d="M416 381L538.5 379L412 316Z" fill="#192228" stroke="#192228"></path><path d="M353.5 600L414 537L372.5 494Z" fill="#192228" stroke="#192228"></path><path d="M372.5 494L414 537L416 381Z" fill="#293740" stroke="#293740"></path><path d="M455 230L361.5 137L367.5 214Z" fill="#11181d" stroke="#11181d"></path><path d="M367.5 214L197 185L323.5 275Z" fill="#212c34" stroke="#212c34"></path><path d="M669 437L598.5 328L538.5 379Z" fill="#11181d" stroke="#11181d"></path><path d="M538.5 379L598.5 328L455 230Z" fill="#151d23" stroke="#151d23"></path><path d="M455 230L474 103L361.5 137Z" fill="#1d272e" stroke="#1d272e"></path><path d="M135.5 416L212 496L249 419Z" fill="#293740" stroke="#293740"></path><path d="M249 419L212 496L372.5 494Z" fill="#151d23" stroke="#151d23"></path><path d="M598.5 328L575.5 222L455 230Z" fill="#2d3d46" stroke="#2d3d46"></path><path d="M361.5 137L197 185L367.5 214Z" fill="#192228" stroke="#192228"></path><path d="M253 315L135.5 416L249 419Z" fill="#2d3d46" stroke="#2d3d46"></path><path d="M212 496L353.5 600L372.5 494Z" fill="#0c1318" stroke="#0c1318"></path><path d="M119.5 330L135.5 416L253 315Z" fill="#2d3d46" stroke="#2d3d46"></path><path d="M353.5 600L435 600L414 537Z" fill="#212c34" stroke="#212c34"></path><path d="M414 537L582.5 536L538.5 379Z" fill="#11181d" stroke="#11181d"></path><path d="M197 185L119.5 330L253 315Z" fill="#040c12" stroke="#040c12"></path><path d="M575.5 222L474 103L455 230Z" fill="#2d3d46" stroke="#2d3d46"></path><path d="M361.5 137L228 103L197 185Z" fill="#11181d" stroke="#11181d"></path><path d="M527.5 600L582.5 536L414 537Z" fill="#11181d" stroke="#11181d"></path><path d="M435 600L527.5 600L414 537Z" fill="#293740" stroke="#293740"></path><path d="M598.5 328L636 210L575.5 222Z" fill="#192228" stroke="#192228"></path><path d="M575.5 222L570.5 95L474 103Z" fill="#192228" stroke="#192228"></path><path d="M712 278L636 210L598.5 328Z" fill="#0c1318" stroke="#0c1318"></path><path d="M302.5 0L228 103L361.5 137Z" fill="#192228" stroke="#192228"></path><path d="M197 185L94.5 229L119.5 330Z" fill="#0c1318" stroke="#0c1318"></path><path d="M212 496L224 600L353.5 600Z" fill="#212c34" stroke="#212c34"></path><path d="M99.5 600L224 600L212 496Z" fill="#1d272e" stroke="#1d272e"></path><path d="M689 497L669 437L582.5 536Z" fill="#151d23" stroke="#151d23"></path><path d="M582.5 536L669 437L538.5 379Z" fill="#0c1318" stroke="#0c1318"></path><path d="M84.5 101L94.5 229L197 185Z" fill="#31434c" stroke="#31434c"></path><path d="M0 403L89.5 519L135.5 416Z" fill="#2d3d46" stroke="#2d3d46"></path><path d="M636 210L570.5 95L575.5 222Z" fill="#212c34" stroke="#212c34"></path><path d="M474 103L302.5 0L361.5 137Z" fill="#192228" stroke="#192228"></path><path d="M0 403L135.5 416L119.5 330Z" fill="#293740" stroke="#293740"></path><path d="M135.5 416L89.5 519L212 496Z" fill="#2d3d46" stroke="#2d3d46"></path><path d="M669 437L712 278L598.5 328Z" fill="#11181d" stroke="#11181d"></path><path d="M636 210L637 67L570.5 95Z" fill="#2d3d46" stroke="#2d3d46"></path><path d="M701 600L689 497L582.5 536Z" fill="#151d23" stroke="#151d23"></path><path d="M669 437L749.5 289L712 278Z" fill="#151d23" stroke="#151d23"></path><path d="M487 0L302.5 0L474 103Z" fill="#212c34" stroke="#212c34"></path><path d="M228 103L84.5 101L197 185Z" fill="#11181d" stroke="#11181d"></path><path d="M570.5 95L487 0L474 103Z" fill="#2d3d46" stroke="#2d3d46"></path><path d="M796.5 431L749.5 289L669 437Z" fill="#2d3d46" stroke="#2d3d46"></path><path d="M750.5 90L637 67L636 210Z" fill="#192228" stroke="#192228"></path><path d="M570.5 95L598.5 0L487 0Z" fill="#212c34" stroke="#212c34"></path><path d="M89.5 519L99.5 600L212 496Z" fill="#293740" stroke="#293740"></path><path d="M0 175L0 333L94.5 229Z" fill="#2d3d46" stroke="#2d3d46"></path><path d="M94.5 229L0 333L119.5 330Z" fill="#0c1318" stroke="#0c1318"></path><path d="M89.5 519L0 600L99.5 600Z" fill="#293740" stroke="#293740"></path><path d="M750.5 90L636 210L712 278Z" fill="#192228" stroke="#192228"></path><path d="M0 333L0 403L119.5 330Z" fill="#25323a" stroke="#25323a"></path><path d="M302.5 0L218 0L228 103Z" fill="#0c1318" stroke="#0c1318"></path><path d="M101.5 0L84.5 101L228 103Z" fill="#0c1318" stroke="#0c1318"></path><path d="M527.5 600L701 600L582.5 536Z" fill="#192228" stroke="#192228"></path><path d="M689 497L796.5 431L669 437Z" fill="#1d272e" stroke="#1d272e"></path><path d="M0 403L0 502L89.5 519Z" fill="#212c34" stroke="#212c34"></path><path d="M637 67L598.5 0L570.5 95Z" fill="#31434c" stroke="#31434c"></path><path d="M84.5 101L0 175L94.5 229Z" fill="#212c34" stroke="#212c34"></path><path d="M790.5 488L796.5 431L689 497Z" fill="#1d272e" stroke="#1d272e"></path><path d="M701 600L790.5 488L689 497Z" fill="#192228" stroke="#192228"></path><path d="M750.5 90L643 0L637 67Z" fill="#151d23" stroke="#151d23"></path><path d="M637 67L643 0L598.5 0Z" fill="#11181d" stroke="#11181d"></path><path d="M0 0L0 127L84.5 101Z" fill="#25323a" stroke="#25323a"></path><path d="M84.5 101L0 127L0 175Z" fill="#293740" stroke="#293740"></path><path d="M218 0L101.5 0L228 103Z" fill="#25323a" stroke="#25323a"></path><path d="M820.5 213L712 278L749.5 289Z" fill="#0c1318" stroke="#0c1318"></path><path d="M820.5 213L750.5 90L712 278Z" fill="#1d272e" stroke="#1d272e"></path><path d="M0 502L0 600L89.5 519Z" fill="#040c12" stroke="#040c12"></path><path d="M900 260L820.5 213L749.5 289Z" fill="#2d3d46" stroke="#2d3d46"></path><path d="M900 260L749.5 289L796.5 431Z" fill="#1d272e" stroke="#1d272e"></path><path d="M701 600L804.5 600L790.5 488Z" fill="#0c1318" stroke="#0c1318"></path><path d="M900 490L900 434L796.5 431Z" fill="#25323a" stroke="#25323a"></path><path d="M900 0L760.5 0L750.5 90Z" fill="#151d23" stroke="#151d23"></path><path d="M750.5 90L760.5 0L643 0Z" fill="#31434c" stroke="#31434c"></path><path d="M101.5 0L0 0L84.5 101Z" fill="#293740" stroke="#293740"></path><path d="M900 490L796.5 431L790.5 488Z" fill="#1d272e" stroke="#1d272e"></path><path d="M820.5 213L900 116L750.5 90Z" fill="#212c34" stroke="#212c34"></path><path d="M900 434L900 260L796.5 431Z" fill="#293740" stroke="#293740"></path><path d="M804.5 600L900 490L790.5 488Z" fill="#25323a" stroke="#25323a"></path><path d="M900 260L900 182L820.5 213Z" fill="#25323a" stroke="#25323a"></path><path d="M900 182L900 116L820.5 213Z" fill="#31434c" stroke="#31434c"></path><path d="M804.5 600L900 600L900 490Z" fill="#1d272e" stroke="#1d272e"></path><path d="M900 116L900 0L750.5 90Z" fill="#040c12" stroke="#040c12"></path></g></svg>